<svg xmlns="http://www.w3.org/2000/svg" viewBox="0 0 128 128" width="128" height="128">
  <defs>
    <!-- 六边形深灰渐变 -->
    <linearGradient id="hex" x1="0%" y1="0%" x2="100%" y2="100%">
      <stop offset="0%" stop-color="#4a4f5a"/>
      <stop offset="100%" stop-color="#373b44"/>
    </linearGradient>
    <!-- 底层垫片的微妙阴影 -->
    <filter id="padShadow" x="-10%" y="-10%" width="120%" height="120%">
      <feDropShadow dx="0" dy="1.28" stdDeviation="2.56" flood-color="#000" flood-opacity=".06"/>
    </filter>
  </defs>
  <rect x="0" y="0" width="128" height="128" rx="23.04" fill="#eef0f4" filter="url(#padShadow)"/>
  <polygon points="64.00,15.36 106.12,39.68 106.12,88.32 64.00,112.64 21.88,88.32 21.88,39.68" fill="url(#hex)"/>
  <g transform="translate(27.7, 29.9)">
    <rect x="6.4" y="2.1" width="44.8" height="57.6" rx="4.3" stroke="white" stroke-width="3.3" fill="none"/>
    <path d="M38.4 2.1 L51.2 14.9 L51.2 8.5 Q51.2 2.1 44.8 2.1 Z" fill="white" opacity=".85"/>
    <line x1="14.9" y1="20.3" x2="42.7" y2="20.3" stroke="white" stroke-width="2.6" stroke-linecap="round"/>
    <line x1="14.9" y1="29.9" x2="37.3" y2="29.9" stroke="white" stroke-width="2.6" stroke-linecap="round" opacity=".65"/>
    <line x1="14.9" y1="39.5" x2="40.5" y2="39.5" stroke="white" stroke-width="2.6" stroke-linecap="round" opacity=".45"/>
    <path d="M14.9 50.1 L22.4 56.5 L14.9 62.9" stroke="white" stroke-width="3.3" stroke-linecap="round" stroke-linejoin="round" fill="none"/>
    <line x1="24.5" y1="62.9" x2="36.3" y2="62.9" stroke="white" stroke-width="2.6" stroke-linecap="round"/>
  </g>
</svg>